#tb 0: 1/25
0,          0,          0,        1,   304128, 0xb8c2f0be
0,          1,          1,        1,   304128, 0x913d975f
0,          2,          2,        1,   304128, 0xd5174c07
0,          3,          3,        1,   304128, 0xd7932869
0,          4,          4,        1,   304128, 0xbe9be386
